<svg preserveAspectRatio="none" viewBox="0 0 120 120" fill="none" xmlns="http://www.w3.org/2000/svg">
<g id="empty-list-desktop" clip-path="url(#clip0)">
<path id="Vector" fill-rule="evenodd" clip-rule="evenodd" d="M21.0937 25.7815H72.6562C73.945 25.7815 75 24.7268 75 23.4377V14.0629C75 12.7739 73.9453 11.7192 72.6562 11.7192H56.2502C56.2504 6.54118 52.0528 2.34375 46.875 2.34375C41.6972 2.34375 37.4997 6.54118 37.4997 11.719H21.0937C19.8047 11.719 18.75 12.7736 18.75 14.0627V23.4375C18.75 24.7268 19.8047 25.7815 21.0937 25.7815Z" fill="#FF1D2F"/>
<path id="Vector_2" fill-rule="evenodd" clip-rule="evenodd" d="M18.7499 23.4375V14.0625H7.03123C4.45312 14.0625 2.34375 16.1719 2.34375 18.75V112.969C2.34375 115.547 4.45312 117.656 7.03123 117.656H86.7184C89.2965 117.656 91.4058 115.547 91.4058 112.969V18.75C91.4058 16.1721 89.2965 14.0625 86.7184 14.0625L74.9997 14.0627V23.4375H82.0309V108.281H11.7187V23.4375H18.7499Z" fill="#9E9E9E"/>
<path id="Vector_3" fill-rule="evenodd" clip-rule="evenodd" d="M21.0937 25.7812C19.8049 25.7812 18.75 24.7266 18.75 23.4375H11.7188V108.281H82.0309V23.4375H74.9997C74.9997 24.7263 73.9449 25.7812 72.6559 25.7812H21.0937Z" fill="white"/>
<path id="Vector_4" d="M86.7183 11.7187H76.7141C75.9024 10.3188 74.3872 9.37522 72.6559 9.37522H58.3584C57.2695 4.03288 52.534 0 46.8748 0C41.2156 0 36.4801 4.03288 35.3914 9.37522H21.0936C19.3623 9.37522 17.8471 10.3188 17.0355 11.7187H7.03122C3.1542 11.7187 0 14.8729 0 18.75V112.969C0 116.846 3.1542 120 7.03122 120H86.7183C90.5953 120 93.7496 116.846 93.7496 112.969V18.75C93.7496 14.8729 90.5953 11.7187 86.7183 11.7187ZM37.4996 14.0627C38.7938 14.0627 39.8433 13.0132 39.8433 11.719C39.8433 7.8417 42.9975 4.68749 46.8748 4.68749C50.752 4.68749 53.9065 7.8417 53.9065 11.719C53.9065 13.0132 54.956 14.0627 56.2502 14.0627H72.6559V23.4375H21.0936L21.0932 14.0627H37.4996ZM89.0621 112.969C89.0621 114.261 88.0107 115.313 86.7183 115.313H7.03122C5.73888 115.313 4.68748 114.261 4.68748 112.969V18.75C4.68748 17.4576 5.73888 16.4062 7.03122 16.4062H16.4062V21.0937H11.7189C10.4247 21.0937 9.37519 22.1432 9.37519 23.4375V108.281C9.37519 109.575 10.4247 110.625 11.7189 110.625H36.3272C37.6215 110.625 38.671 109.575 38.671 108.281C38.671 106.987 37.6215 105.938 36.3272 105.938H14.0627V25.7812H17.0352C17.8469 27.1814 19.3621 28.1249 21.0936 28.1249H72.6559C74.3875 28.1249 75.9027 27.1814 76.7143 25.7812H79.6871V105.938H57.4209C56.1267 105.938 55.0772 106.987 55.0772 108.281C55.0772 109.575 56.1267 110.625 57.4209 110.625H82.0309C83.3251 110.625 84.3746 109.575 84.3746 108.281C84.3746 75.1477 84.3746 56.571 84.3746 23.4375C84.3746 22.1432 83.3251 21.0937 82.0309 21.0937H77.3434V16.4062H86.7183C88.0107 16.4062 89.0621 17.4576 89.0621 18.75V112.969Z" fill="#1B1B1B"/>
<path id="Vector_5" d="M46.8759 14.0626C48.1702 14.0626 49.2197 13.013 49.2197 11.7188C49.2197 10.4246 48.1702 9.375 46.8759 9.375H46.8741C45.5798 9.375 44.5312 10.4246 44.5312 11.7188C44.5312 13.013 45.5815 14.0626 46.8759 14.0626Z" fill="black"/>
<path id="Vector_6" d="M110.143 25.5142C109.746 24.7201 108.935 24.2188 108.047 24.2188H101.016C99.7214 24.2188 98.6719 25.2683 98.6719 26.5625C98.6719 27.8568 99.7214 28.9062 101.016 28.9062H103.359L99.1407 34.5313C98.6082 35.2415 98.5221 36.1915 98.9194 36.9858C99.3164 37.7799 100.128 38.2813 101.016 38.2813H108.047C109.341 38.2813 110.391 37.2318 110.391 35.9376C110.391 34.6433 109.341 33.5938 108.047 33.5938H105.703L109.922 27.9688C110.454 27.2584 110.54 26.3085 110.143 25.5142Z" fill="white"/>
<path id="Vector_7" d="M117.656 12.4999H112.969L119.531 3.75001C120.064 3.03985 120.15 2.08969 119.753 1.29539C119.355 0.501329 118.544 0 117.656 0H108.281C106.987 0 105.938 1.04953 105.938 2.34375C105.938 3.63798 106.987 4.68751 108.281 4.68751H112.969L106.406 13.4374C105.874 14.1476 105.788 15.0978 106.185 15.8918C106.582 16.6861 107.393 17.1875 108.281 17.1875H117.656C118.95 17.1875 120 16.1379 120 14.8437C120 13.5495 118.95 12.4999 117.656 12.4999Z" fill="white"/>
<path id="Vector_8" d="M35.3488 56.321C34.4713 57.1985 33.3045 57.682 32.0635 57.682C30.8227 57.682 29.6563 57.1987 28.7785 56.321C27.8631 55.406 26.3795 55.406 25.4638 56.321C24.5485 57.2362 24.5485 58.7203 25.4638 59.6358C27.2267 61.3985 29.5705 62.3695 32.0633 62.3695C34.5563 62.3695 36.9001 61.3985 38.6631 59.6358C39.5783 58.7205 39.5783 57.2365 38.6631 56.321C37.7481 55.406 36.2642 55.406 35.3488 56.321Z" fill="#1B1B1B"/>
<path id="Vector_9" d="M61.6851 62.3695C64.1781 62.3695 66.5219 61.3985 68.2848 59.6358C69.2001 58.7205 69.2001 57.2365 68.2848 56.321C67.3694 55.406 65.8858 55.406 64.9701 56.321C64.0926 57.1985 62.9258 57.682 61.6848 57.682C60.4438 57.682 59.2773 57.1987 58.3996 56.321C57.4841 55.406 56.0005 55.406 55.0848 56.321C54.1696 57.2362 54.1696 58.7203 55.0848 59.6358C56.8485 61.3985 59.1923 62.3695 61.6851 62.3695Z" fill="#1B1B1B"/>
<path id="Vector_10" d="M50.1833 71.3965H43.5625C42.2682 71.3965 41.2188 72.446 41.2188 73.7403C41.2188 75.0345 42.2682 76.084 43.5625 76.084H50.1833C51.4775 76.084 52.5271 75.0345 52.5271 73.7403C52.5271 72.446 51.4775 71.3965 50.1833 71.3965Z" fill="#1B1B1B"/>
<path id="Vector_11" d="M46.8759 105.938H46.8741C45.5799 105.938 44.5312 106.987 44.5312 108.281C44.5312 109.575 45.5814 110.625 46.8759 110.625C48.1703 110.625 49.2197 109.575 49.2197 108.281C49.2197 106.987 48.1701 105.938 46.8759 105.938Z" fill="#1B1B1B"/>
</g>
<defs>
<clipPath id="clip0">
<rect width="120" height="120" fill="white"/>
</clipPath>
</defs>
</svg>
