<svg preserveAspectRatio="none" viewBox="0 0 43 52" fill="none" xmlns="http://www.w3.org/2000/svg">
<g id="my-list-desktop">
<path id="Vector" d="M37.8947 50H2.10531C0.942635 50 0 49.0673 0 47.9166V2.08339C0 0.932692 0.942508 0 2.10531 0H37.8947C39.0574 0 40 0.932692 40 2.08339V47.9167C39.9999 49.0673 39.0574 50 37.8947 50Z" fill="white"/>
<path id="Vector_2" d="M32.8889 12H15.1111C14.497 12 14 11.5522 14 11C14 10.4478 14.497 10 15.1111 10H32.8889C33.503 10 34 10.4478 34 11C34 11.5522 33.503 12 32.8889 12Z" fill="#9E9E9E"/>
<path id="Vector_3" d="M17.75 16H15.25C14.5591 16 14 15.5522 14 15C14 14.4478 14.5591 14 15.25 14H17.75C18.4409 14 19 14.4478 19 15C19 15.5522 18.4409 16 17.75 16Z" fill="#9E9E9E"/>
<path id="Vector_4" d="M27.8572 16H22.1428C21.5112 16 21 15.5522 21 15C21 14.4478 21.5112 14 22.1428 14H27.8572C28.4888 14 29 14.4478 29 15C29.0001 15.5522 28.489 16 27.8572 16Z" fill="#9E9E9E"/>
<path id="Vector_5" d="M32.8889 24H15.1111C14.497 24 14 23.5522 14 23C14 22.4478 14.497 22 15.1111 22H32.8889C33.503 22 34 22.4478 34 23C34 23.5522 33.503 24 32.8889 24Z" fill="#9E9E9E"/>
<path id="Vector_6" d="M17.75 28H15.25C14.5591 28 14 27.5522 14 27C14 26.4478 14.5591 26 15.25 26H17.75C18.4409 26 19 26.4478 19 27C19 27.5522 18.4409 28 17.75 28Z" fill="#9E9E9E"/>
<path id="Vector_7" d="M27.8572 28H22.1428C21.5112 28 21 27.5522 21 27C21 26.4478 21.5112 26 22.1428 26H27.8572C28.4888 26 29 26.4478 29 27C29.0001 27.5522 28.489 28 27.8572 28Z" fill="#9E9E9E"/>
<path id="Vector_8" d="M32.8889 36H15.1111C14.497 36 14 35.5522 14 35C14 34.4478 14.497 34 15.1111 34H32.8889C33.503 34 34 34.4478 34 35C34 35.5522 33.503 36 32.8889 36Z" fill="#9E9E9E"/>
<path id="Vector_9" d="M17.75 40H15.25C14.5591 40 14 39.5522 14 39C14 38.4478 14.5591 38 15.25 38H17.75C18.4409 38 19 38.4478 19 39C19 39.5522 18.4409 40 17.75 40Z" fill="#9E9E9E"/>
<path id="Vector_10" d="M27.8572 40H22.1428C21.5112 40 21 39.5522 21 39C21 38.4478 21.5112 38 22.1428 38H27.8572C28.4888 38 29 38.4478 29 39C29 39.5522 28.489 40 27.8572 40Z" fill="#9E9E9E"/>
<path id="Vector_11" d="M9.47878 16.143C10.9319 16.143 12.1099 14.9773 12.1099 13.5392C12.1099 12.1012 10.9319 10.9355 9.47878 10.9355C8.02565 10.9355 6.84766 12.1012 6.84766 13.5392C6.84766 14.9773 8.02565 16.143 9.47878 16.143Z" fill="#FF1D2F"/>
<path id="Vector_12" d="M9.47878 39.0561C10.9319 39.0561 12.1099 37.8904 12.1099 36.4524C12.1099 35.0143 10.9319 33.8486 9.47878 33.8486C8.02565 33.8486 6.84766 35.0143 6.84766 36.4524C6.84766 37.8904 8.02565 39.0561 9.47878 39.0561Z" fill="#FF1D2F"/>
<path id="Vector_13" d="M9.47878 27.6001C10.9319 27.6001 12.1099 26.4344 12.1099 24.9963C12.1099 23.5583 10.9319 22.3926 9.47878 22.3926C8.02565 22.3926 6.84766 23.5583 6.84766 24.9963C6.84766 26.4344 8.02565 27.6001 9.47878 27.6001Z" fill="#FF1D2F"/>
<path id="Vector_14" d="M39.4827 41C38.7 41 37.9771 41.2562 37.3929 41.6893C37.157 41.8641 36.843 41.8641 36.6071 41.6893C36.0228 41.2562 35.2999 41 34.5172 41C32.5747 41 31 42.577 31 44.5225C31 47.0966 33.8814 50.1674 36.6197 51.5876C36.8572 51.7108 37.1428 51.7108 37.3803 51.5876C40.1186 50.1674 43 47.0966 43 44.5225C42.9999 42.5771 41.4252 41 39.4827 41Z" fill="#FF1D2F"/>
</g>
</svg>
