<svg preserveAspectRatio="none" viewBox="0 0 131 131" fill="none" xmlns="http://www.w3.org/2000/svg">
<g id="no-results-svg-desktop">
<g id="search-no-result.d6814fbe 1">
<g id="Group">
<path id="Vector" d="M62 88C82.4345 88 99 71.4345 99 51C99 30.5655 82.4345 14 62 14C41.5655 14 25 30.5655 25 51C25 71.4345 41.5655 88 62 88Z" fill="white"/>
<path id="Vector_2" d="M93.1744 78.7967C100.744 69.7177 104.522 58.0694 103.721 46.2757C102.92 34.4821 97.6028 23.4513 88.8751 15.479C80.1474 7.50657 68.6817 3.20654 56.8638 3.47365C45.046 3.74077 33.7863 8.55446 25.4277 16.913C17.0691 25.2716 12.2554 36.5313 11.9883 48.3492C11.7212 60.167 16.0213 71.6327 23.9936 80.3604C31.966 89.0881 42.9967 94.4056 54.7904 95.2064C66.5841 96.0072 78.2324 92.2296 87.3114 84.6597L107.26 104.605L113.123 98.7417L93.1744 78.7967ZM92.0214 56.5407C92.0193 65.721 88.3707 74.5245 81.8781 81.0149C75.3855 87.5052 66.5807 91.1508 57.4004 91.1497C48.2201 91.1486 39.4161 87.501 32.9251 81.0092C26.434 74.5174 22.7874 65.713 22.7874 56.5327C22.7874 47.3524 26.434 38.548 32.9251 32.0562C39.4161 25.5644 48.2201 21.9168 57.4004 21.9157C66.5807 21.9146 75.3855 25.5602 81.8781 32.0506C88.3707 38.5409 92.0193 47.3444 92.0214 56.5247V56.5407Z" fill="#292929"/>
<path id="Vector_3" d="M96.0064 75.9656C103.576 66.8866 107.354 55.2384 106.553 43.4447C105.752 31.651 100.435 20.6203 91.707 12.6479C82.9793 4.67552 71.5136 0.375484 59.6958 0.642599C47.878 0.909714 36.6183 5.7234 28.2597 14.082C19.9011 22.4406 15.0874 33.7003 14.8203 45.5181C14.5532 57.3359 18.8532 68.8016 26.8256 77.5293C34.798 86.257 45.8287 91.5746 57.6224 92.3754C69.4161 93.1762 81.0643 89.3986 90.1434 81.8287L110.093 101.774L115.956 95.9107L96.0064 75.9656ZM94.8543 53.7057C93.4417 60.4515 90.0605 66.627 85.1382 71.4513C80.2159 76.2755 73.9736 79.5318 67.2007 80.8083C60.4277 82.0849 53.4283 81.3244 47.0876 78.6231C40.7469 75.9217 35.3496 71.4008 31.5782 65.632C27.8068 59.8632 25.8308 53.1056 25.8999 46.2138C25.969 39.3219 28.0803 32.6053 31.9666 26.9134C35.8529 21.2214 41.3399 16.8096 47.7335 14.236C54.1272 11.6624 61.1404 11.0425 67.8863 12.4547C72.3657 13.3924 76.6166 15.2032 80.3961 17.7838C84.1756 20.3643 87.4099 23.6641 89.9141 27.4947C92.4183 31.3252 94.1435 35.6115 94.9912 40.1088C95.8388 44.6061 95.7923 49.2263 94.8543 53.7057Z" fill="#9E9E9E"/>
<path id="Vector_4" d="M110.094 102.402C110.012 102.402 109.93 102.386 109.854 102.354C109.778 102.323 109.708 102.276 109.65 102.218L90.1039 82.6761C80.8455 90.204 69.0499 93.8892 57.1527 92.9708C45.2554 92.0524 34.1652 86.6004 26.1719 77.7407C18.1786 68.881 13.8926 57.2902 14.199 45.3615C14.5054 33.4328 19.3808 22.0773 27.8184 13.6397C36.2561 5.20203 47.6116 0.326662 59.5403 0.0202492C71.469 -0.286163 83.0598 3.99978 91.9195 11.9931C100.779 19.9864 106.231 31.0767 107.15 42.9739C108.068 54.8711 104.383 66.6667 96.8549 75.9251L116.401 95.4671C116.46 95.5253 116.506 95.5945 116.537 95.6707C116.569 95.7469 116.585 95.8286 116.585 95.9111C116.585 95.9936 116.569 96.0753 116.537 96.1515C116.506 96.2276 116.46 96.2969 116.401 96.3551L110.538 102.218C110.48 102.277 110.411 102.323 110.334 102.354C110.258 102.386 110.177 102.402 110.094 102.402ZM90.1449 81.2021C90.2274 81.202 90.309 81.2182 90.3852 81.2498C90.4614 81.2814 90.5307 81.3277 90.5889 81.3861L110.094 100.886L115.068 95.9121L95.5629 76.4121C95.4522 76.3012 95.3869 76.153 95.3798 75.9965C95.3728 75.8399 95.4245 75.6864 95.5249 75.5661C102.993 66.6113 106.72 55.1219 105.931 43.4886C105.143 31.8553 99.8982 20.9742 91.29 13.1095C82.6817 5.24475 71.3724 1.00219 59.7154 1.26463C48.0583 1.52707 36.9514 6.2743 28.7058 14.5184C20.4602 22.7626 15.7111 33.8687 15.4466 45.5257C15.1822 57.1827 19.4228 68.4928 27.286 77.1024C35.1492 85.712 46.0294 90.958 57.6626 91.7489C69.2957 92.5397 80.7858 88.8143 89.7419 81.3481C89.8545 81.2535 89.9968 81.2015 90.1439 81.2011L90.1449 81.2021ZM60.7559 82.0501C53.4263 82.0528 46.2758 79.7853 40.2872 75.5594C34.2985 71.3335 29.7657 65.3566 27.3116 58.45C24.8575 51.5435 24.6028 44.0465 26.5823 36.9893C28.5618 29.9321 32.6784 23.6612 38.3663 19.0384C44.0543 14.4157 51.0343 11.668 58.3471 11.1731C65.66 10.6782 72.9466 12.4602 79.2056 16.2744C85.4645 20.0886 90.3885 25.7476 93.3009 32.4738C96.2132 39.1999 96.971 46.6629 95.4699 53.8371V53.8521C93.7879 61.8168 89.4227 68.9627 83.104 74.095C76.7853 79.2273 68.8963 82.0348 60.7559 82.0481V82.0501ZM60.7379 12.3501C54.2699 12.3508 47.9345 14.1843 42.4659 17.6383C36.9974 21.0923 32.6196 26.0252 29.8399 31.8654C27.0602 37.7057 25.9925 44.2141 26.7604 50.6363C27.5284 57.0586 30.1005 63.1317 34.1788 68.1519C38.2571 73.1721 43.6746 76.9338 49.8033 79.0011C55.932 81.0683 62.5211 81.3564 68.8069 79.8321C75.0927 78.3077 80.8179 75.0333 85.3188 70.3883C89.8198 65.7432 92.9123 59.9178 94.2379 53.5871V53.5741C95.2762 48.5932 95.1914 43.4436 93.9895 38.4996C92.7876 33.5557 90.4989 28.9418 87.2899 24.9934C84.0809 21.0451 80.0322 17.8616 75.4383 15.6746C70.8444 13.4875 65.8208 12.3518 60.7329 12.3501H60.7379Z" fill="#292929"/>
<path id="Vector_5" d="M127.171 101.804L108.327 82.9597C108.026 82.6565 107.668 82.4157 107.273 82.251C106.879 82.0863 106.456 82.001 106.029 82C105.602 81.999 105.178 82.0823 104.783 82.2451C104.388 82.4078 104.029 82.647 103.727 82.9487L103.716 82.9597L100.885 85.7907L96.7845 89.8907L93.9535 92.7217C93.343 93.3327 93 94.161 93 95.0247C93 95.8884 93.343 96.7168 93.9535 97.3277L112.798 116.172C113.555 116.929 114.454 117.53 115.444 117.94C116.434 118.35 117.495 118.561 118.566 118.561C119.637 118.561 120.698 118.35 121.687 117.94C122.677 117.53 123.576 116.929 124.334 116.172C125.016 114.998 125.991 114.023 127.165 113.341C128.695 111.811 129.555 109.737 129.556 107.573C129.557 105.41 128.699 103.335 127.171 101.804Z" fill="#FF1D2F"/>
<path id="Vector_6" d="M118.719 118.992C117.565 118.994 116.422 118.768 115.356 118.327C114.29 117.887 113.321 117.239 112.506 116.423L93.6626 97.5795C92.9355 96.8501 92.5273 95.8623 92.5273 94.8325C92.5273 93.8027 92.9355 92.8148 93.6626 92.0855L103.428 82.3205C103.789 81.9589 104.218 81.672 104.689 81.4762C105.161 81.2805 105.667 81.1797 106.178 81.1797C106.689 81.1797 107.195 81.2805 107.667 81.4762C108.139 81.672 108.567 81.9589 108.928 82.3205L127.771 101.163C128.75 103.72 129.004 106.498 128.504 109.191C128.004 111.883 126.771 114.385 124.939 116.421L124.922 116.437C124.107 117.25 123.139 117.893 122.075 118.332C121.011 118.77 119.87 118.995 118.719 118.992ZM106.175 82.4345C105.832 82.4333 105.491 82.5002 105.174 82.6313C104.856 82.7625 104.568 82.9552 104.325 83.1985L94.5496 92.9735C94.0578 93.4672 93.7816 94.1356 93.7816 94.8325C93.7816 95.5293 94.0578 96.1978 94.5496 96.6915L113.394 115.535C114.807 116.945 116.722 117.737 118.718 117.737C120.714 117.737 122.629 116.945 124.042 115.535L124.053 115.525C124.486 115.085 124.864 114.593 125.177 114.061C125.231 113.969 125.308 113.892 125.4 113.838C126.389 113.256 127.231 112.454 127.861 111.496C128.491 110.537 128.893 109.447 129.036 108.308C129.179 107.17 129.058 106.014 128.684 104.929C128.31 103.844 127.691 102.86 126.877 102.052L108.033 83.2085C107.791 82.9632 107.502 82.7686 107.184 82.6359C106.866 82.5032 106.525 82.4351 106.18 82.4355L106.175 82.4345Z" fill="#292929"/>
<path id="Vector_7" d="M96.4834 100.157C96.3592 100.157 96.2378 100.12 96.1345 100.051C96.0313 99.9816 95.9508 99.8836 95.9033 99.7688C95.8558 99.6541 95.8433 99.5278 95.8676 99.406C95.8918 99.2842 95.9516 99.1723 96.0394 99.0845L101.68 93.4485C101.798 93.3308 101.958 93.2647 102.124 93.2648C102.291 93.2649 102.451 93.3311 102.569 93.449C102.686 93.5669 102.752 93.7267 102.752 93.8934C102.752 94.06 102.686 94.2198 102.568 94.3375L96.9274 99.9735C96.869 100.032 96.7998 100.078 96.7236 100.11C96.6474 100.141 96.5658 100.157 96.4834 100.157ZM99.6404 103.315C99.5161 103.315 99.3946 103.278 99.2912 103.21C99.1878 103.141 99.1071 103.043 99.0595 102.928C99.0118 102.813 98.9993 102.687 99.0235 102.565C99.0477 102.443 99.1075 102.331 99.1954 102.243L104.831 96.6015C104.949 96.4836 105.109 96.4173 105.275 96.4173C105.442 96.4172 105.602 96.4833 105.72 96.601C105.837 96.7188 105.904 96.8785 105.904 97.0452C105.904 97.2118 105.838 97.3716 105.72 97.4895L100.084 103.131C100.026 103.189 99.9569 103.236 99.8807 103.267C99.8045 103.299 99.7228 103.315 99.6404 103.315ZM102.798 106.472C102.674 106.472 102.552 106.435 102.449 106.367C102.345 106.298 102.265 106.2 102.217 106.085C102.17 105.97 102.157 105.844 102.181 105.722C102.205 105.6 102.265 105.488 102.353 105.4L107.989 99.7585C108.107 99.6406 108.267 99.5744 108.433 99.5743C108.6 99.5742 108.76 99.6403 108.878 99.758C108.995 99.8758 109.062 100.036 109.062 100.203C109.062 100.369 108.996 100.529 108.878 100.647L103.242 106.288C103.184 106.346 103.115 106.393 103.038 106.424C102.962 106.456 102.881 106.472 102.798 106.472ZM105.953 109.625C105.829 109.625 105.707 109.588 105.604 109.519C105.5 109.45 105.419 109.352 105.372 109.237C105.324 109.122 105.312 108.996 105.336 108.874C105.361 108.752 105.421 108.64 105.509 108.552L111.15 102.916C111.268 102.798 111.428 102.732 111.594 102.732C111.677 102.732 111.759 102.749 111.835 102.78C111.911 102.812 111.98 102.858 112.039 102.917C112.097 102.975 112.143 103.044 112.175 103.12C112.206 103.197 112.222 103.278 112.222 103.361C112.222 103.443 112.206 103.525 112.174 103.601C112.143 103.677 112.096 103.747 112.038 103.805L106.397 109.441C106.339 109.499 106.27 109.546 106.193 109.577C106.117 109.609 106.036 109.625 105.953 109.625ZM109.108 112.782C108.984 112.782 108.862 112.745 108.759 112.676C108.655 112.607 108.574 112.509 108.527 112.394C108.479 112.279 108.467 112.153 108.491 112.031C108.516 111.909 108.576 111.797 108.664 111.709L114.305 106.073C114.423 105.955 114.583 105.889 114.749 105.889C114.832 105.889 114.914 105.906 114.99 105.937C115.066 105.969 115.135 106.015 115.194 106.074C115.252 106.132 115.298 106.201 115.33 106.277C115.361 106.354 115.377 106.435 115.377 106.518C115.377 106.6 115.361 106.682 115.329 106.758C115.298 106.834 115.251 106.904 115.193 106.962L109.553 112.598C109.495 112.656 109.425 112.703 109.349 112.734C109.273 112.766 109.191 112.782 109.108 112.782ZM112.265 115.94C112.141 115.94 112.019 115.903 111.916 115.835C111.812 115.766 111.732 115.668 111.684 115.553C111.637 115.438 111.624 115.312 111.648 115.19C111.672 115.068 111.732 114.956 111.82 114.868L117.456 109.227C117.514 109.169 117.584 109.122 117.66 109.091C117.736 109.059 117.818 109.043 117.9 109.043C117.983 109.043 118.064 109.059 118.141 109.09C118.217 109.122 118.286 109.168 118.345 109.227C118.403 109.285 118.449 109.354 118.481 109.43C118.512 109.506 118.529 109.588 118.529 109.671C118.529 109.753 118.513 109.835 118.481 109.911C118.45 109.987 118.403 110.057 118.345 110.115L112.709 115.756C112.591 115.874 112.432 115.94 112.265 115.94ZM107.885 88.7545C107.761 88.7542 107.64 88.7172 107.536 88.648C107.433 88.5789 107.353 88.4808 107.305 88.366C107.258 88.2513 107.245 88.125 107.27 88.0032C107.294 87.8814 107.353 87.7695 107.441 87.6815L110.264 84.8635C110.383 84.7492 110.541 84.6859 110.706 84.6875C110.871 84.6891 111.028 84.7553 111.145 84.8719C111.261 84.9885 111.327 85.1462 111.328 85.3109C111.329 85.4756 111.266 85.6342 111.151 85.7525L108.329 88.5705C108.271 88.6289 108.202 88.6752 108.125 88.7068C108.049 88.7383 107.968 88.7546 107.885 88.7545ZM111.042 91.9115C110.918 91.9115 110.796 91.8747 110.693 91.8057C110.59 91.7366 110.51 91.6386 110.462 91.5238C110.414 91.4091 110.402 91.2828 110.426 91.161C110.45 91.0392 110.51 90.9274 110.598 90.8395L113.416 88.0215C113.534 87.907 113.693 87.8436 113.858 87.845C114.023 87.8464 114.18 87.9125 114.297 88.0289C114.413 88.1454 114.479 88.303 114.481 88.4677C114.482 88.6324 114.419 88.7911 114.304 88.9095L111.484 91.7265C111.367 91.8443 111.208 91.9108 111.042 91.9115ZM114.201 95.0645C114.077 95.0645 113.955 95.0277 113.852 94.9587C113.749 94.8896 113.669 94.7916 113.621 94.6768C113.573 94.5621 113.561 94.4358 113.585 94.314C113.609 94.1922 113.669 94.0804 113.757 93.9925L116.575 91.1745C116.693 91.06 116.852 90.9966 117.017 90.998C117.182 90.9994 117.339 91.0655 117.456 91.1819C117.572 91.2984 117.638 91.456 117.64 91.6207C117.641 91.7854 117.578 91.9441 117.463 92.0625L114.645 94.8815C114.587 94.9397 114.518 94.9859 114.441 95.0173C114.365 95.0487 114.283 95.0647 114.201 95.0645ZM117.357 98.2225C117.233 98.2225 117.111 98.1856 117.008 98.1166C116.905 98.0476 116.825 97.9496 116.777 97.8348C116.729 97.7201 116.717 97.5939 116.741 97.472C116.765 97.3502 116.825 97.2384 116.913 97.1505L119.731 94.3315C119.849 94.217 120.008 94.1536 120.173 94.155C120.338 94.1564 120.495 94.2225 120.612 94.3389C120.728 94.4554 120.794 94.613 120.796 94.7777C120.797 94.9424 120.734 95.1011 120.619 95.2195L117.801 98.0385C117.743 98.0969 117.674 98.1433 117.597 98.1748C117.521 98.2064 117.44 98.2226 117.357 98.2225ZM120.51 101.38C120.386 101.38 120.264 101.343 120.161 101.274C120.058 101.205 119.978 101.107 119.93 100.992C119.882 100.878 119.87 100.751 119.894 100.63C119.918 100.508 119.978 100.396 120.066 100.308L122.884 97.4885C123.002 97.374 123.161 97.3106 123.326 97.312C123.491 97.3134 123.648 97.3795 123.765 97.4959C123.881 97.6124 123.947 97.77 123.949 97.9347C123.95 98.0994 123.887 98.2581 123.772 98.3765L120.954 101.196C120.896 101.254 120.827 101.301 120.75 101.332C120.674 101.364 120.593 101.38 120.51 101.38ZM123.667 104.539C123.543 104.539 123.421 104.502 123.318 104.433C123.215 104.364 123.135 104.266 123.087 104.151C123.039 104.037 123.027 103.91 123.051 103.789C123.075 103.667 123.135 103.555 123.223 103.467L126.041 100.644C126.099 100.584 126.168 100.536 126.245 100.503C126.321 100.47 126.404 100.453 126.487 100.452C126.57 100.451 126.653 100.467 126.73 100.499C126.807 100.53 126.878 100.577 126.937 100.635C126.996 100.694 127.042 100.764 127.074 100.842C127.106 100.919 127.122 101.001 127.121 101.085C127.12 101.168 127.103 101.25 127.07 101.327C127.038 101.404 126.99 101.473 126.93 101.531L124.112 104.354C124.054 104.413 123.984 104.459 123.908 104.491C123.832 104.523 123.75 104.539 123.667 104.539Z" fill="#292929"/>
<path id="Vector_8" d="M47.3073 50.8666C48.7736 50.8666 49.9623 49.6779 49.9623 48.2116C49.9623 46.7452 48.7736 45.5566 47.3073 45.5566C45.841 45.5566 44.6523 46.7452 44.6523 48.2116C44.6523 49.6779 45.841 50.8666 47.3073 50.8666Z" fill="#292929"/>
<path id="Vector_9" d="M76.8933 50.8666C78.3596 50.8666 79.5483 49.6779 79.5483 48.2116C79.5483 46.7452 78.3596 45.5566 76.8933 45.5566C75.427 45.5566 74.2383 46.7452 74.2383 48.2116C74.2383 49.6779 75.427 50.8666 76.8933 50.8666Z" fill="#292929"/>
<path id="Vector_10" d="M65.851 61.6151C65.797 61.6149 65.7432 61.6079 65.691 61.5941L65.611 61.5731C63.2947 61.0387 60.8872 61.0387 58.571 61.5731L58.497 61.5911C58.3374 61.6251 58.1709 61.5956 58.0327 61.509C57.8945 61.4223 57.7954 61.2853 57.7565 61.1269C57.7175 60.9685 57.7416 60.8012 57.8239 60.6603C57.9061 60.5194 58.0399 60.4161 58.197 60.3721L58.281 60.3511C60.7928 59.7697 63.4042 59.7697 65.916 60.3511L66.016 60.3761C66.1641 60.4144 66.2931 60.5055 66.3789 60.6322C66.4646 60.7589 66.5012 60.9125 66.4816 61.0642C66.4621 61.216 66.3879 61.3554 66.2729 61.4562C66.1579 61.5571 66.01 61.6125 65.857 61.6121L65.851 61.6151Z" fill="#292929"/>
</g>
</g>
</g>
</svg>
